<?xml version="1.0" standalone="no"?><!DOCTYPE svg PUBLIC "-//W3C//DTD SVG 1.1//EN" "http://www.w3.org/Graphics/SVG/1.1/DTD/svg11.dtd"><svg t="1555396184763"
 class="icon" style="" viewBox="0 0 1024 1024" version="1.1"
  xmlns="http://www.w3.org/2000/svg" p-id="1766"
   xmlns:xlink="http://www.w3.org/1999/xlink" 
   width="14" height="14"><defs><style type="text/css"></style></defs><path d="M512.33 66.125c-246.434 0-446.205 199.78-446.205 446.213 0 246.442 199.77 446.228 446.206 446.228 246.44 0 446.196-199.786 446.196-446.228 0-246.434-199.755-446.213-446.196-446.213z m47.28 735.706c-12.62 13.129-28.383 19.693-47.28 19.693-19.428-0.5-35.737-7.354-48.858-20.483-11.543-11.542-17.31-26.797-17.31-45.709 0-19.944 6.268-36.222 18.897-48.843 12.074-11.558 27.844-17.326 47.273-17.326 18.388 0 34.118 6.542 47.279 19.702 12.62 12.081 18.889 27.555 18.889 46.467-0.001 19.452-6.27 34.95-18.89 46.499z m-45.537-594.546c52.274 0 89.886 56.103 84.603 117.941L578.68 559.478c-2.759 32.502-31.596 56.876-64.606 56.876-33.025 0-61.847-24.374-64.614-56.876l-20.006-234.252c-5.267-61.838 32.338-117.94 84.62-117.94z" fill="rgb(242,85,85)" p-id="1767"></path></svg>