<?xml version="1.0" standalone="no"?><!DOCTYPE svg PUBLIC "-//W3C//DTD SVG 1.1//EN" "http://www.w3.org/Graphics/SVG/1.1/DTD/svg11.dtd"><svg t="1555384334656" class="icon" style="" viewBox="0 0 1024 1024" version="1.1" xmlns="http://www.w3.org/2000/svg" p-id="1674" xmlns:xlink="http://www.w3.org/1999/xlink" width="14" height="14"><defs><style type="text/css"></style></defs><path d="M512 1024C229.229714 1024 0 794.770286 0 512S229.229714 0 512 0s512 229.229714 512 512-229.229714 512-512 512z m69.046857-512l172.617143-172.617143a48.822857 48.822857 0 0 0-69.010286-69.083428L512 442.916571l-172.617143-172.617142A48.822857 48.822857 0 1 0 270.262857 339.382857L442.916571 512l-172.617142 172.617143A48.822857 48.822857 0 0 0 339.382857 753.737143L512 581.083429l172.617143 172.617142a48.822857 48.822857 0 1 0 69.083428-69.046857L581.083429 512z" fill="rgb(203,210,214)" p-id="1675" width="14" height="14"></path></svg>